<svg width="14" height="14" viewBox="0 0 14 14" fill="none" xmlns="http://www.w3.org/2000/svg">
<path d="M4.33338 1.00005H2.33338C1.97976 1.00005 1.50003 1 1.00009 1.00002C1.00007 1.5 1.00005 1.97976 1.00005 2.33338V4.33338M13 4.33338V2.33338C13 1.97976 13 1.49996 13 1C12.6095 1.00008 12.0203 1.00005 11.6667 1.00005H9.66672M9.66672 13H11.6667C12.0203 13 12.5 13 13 13C13 12.5 13 12.0203 13 11.6667V9.66672M1.00005 9.66672V11.6667C1.00005 12.0203 1 12.6095 1 13C1.5 13 1.97976 13 2.33338 13H4.33338" stroke="#1E1E1E" stroke-width="2" stroke-linecap="round" stroke-linejoin="round"/>
</svg>
